<?xml version="1.0" standalone="no"?>
<!DOCTYPE svg PUBLIC "-//W3C//DTD SVG 20010904//EN"
 "http://www.w3.org/TR/2001/REC-SVG-20010904/DTD/svg10.dtd">
<svg version="1.0" xmlns="http://www.w3.org/2000/svg"
 width="1365.000000pt" height="1365.000000pt" viewBox="0 0 1365.000000 1365.000000"
 preserveAspectRatio="xMidYMid meet">

<g transform="translate(0.000000,1365.000000) scale(0.100000,-0.100000)"
fill="#000000" stroke="none">
<path d="M0 6825 l0 -6825 6825 0 6825 0 0 6825 0 6825 -6825 0 -6825 0 0
-6825z m9025 3760 c117 -19 310 -72 455 -125 461 -170 886 -502 1152 -900 89
-134 237 -434 282 -570 87 -264 121 -513 113 -825 -9 -377 -84 -685 -248
-1015 -129 -258 -268 -449 -471 -646 -342 -330 -761 -547 -1259 -650 -129 -27
-145 -28 -429 -28 -310 0 -401 9 -605 62 l-70 18 0 116 c0 64 4 120 8 124 4 4
58 -4 120 -19 230 -55 286 -62 542 -62 207 0 258 4 369 23 399 72 735 230
1047 490 300 252 529 597 657 992 76 235 105 421 105 670 -1 983 -671 1830
-1642 2075 -234 58 -431 77 -670 64 -439 -25 -850 -175 -1206 -439 -165 -122
-331 -294 -474 -490 -34 -46 -68 -88 -75 -92 -17 -9 -70 8 -154 51 l-63 32 23
40 c86 154 409 505 598 651 301 232 752 419 1105 458 134 14 692 11 790 -5z
m-145 -740 c36 -41 74 -91 85 -110 l20 -34 -20 -37 c-27 -51 -193 -220 -229
-234 -36 -13 -65 3 -104 62 -24 37 -27 52 -30 142 -4 100 -4 101 -44 153 -22
28 -46 57 -53 63 -20 17 -66 -11 -99 -60 -49 -74 -49 -81 -6 -167 54 -109 51
-111 -119 -94 -139 13 -176 9 -256 -31 -54 -27 -115 -87 -115 -113 0 -25 105
-138 123 -132 6 2 36 33 66 68 84 98 105 111 174 107 77 -6 102 -27 157 -130
25 -46 63 -106 84 -132 35 -42 38 -49 27 -72 -15 -33 -67 -54 -136 -54 -75 0
-118 -20 -150 -69 -16 -26 -44 -52 -76 -69 -114 -62 -139 -82 -208 -174 -76
-101 -110 -167 -111 -211 0 -35 -16 -67 -34 -67 -8 0 -38 23 -67 50 -62 59
-78 64 -163 58 -126 -11 -149 -39 -141 -173 8 -119 1 -127 -61 -77 -91 73
-383 379 -406 427 l-22 45 22 108 c27 132 27 163 1 298 l-20 106 33 55 c65
108 279 332 412 430 66 49 74 50 237 31 96 -10 102 -10 112 8 6 10 27 36 47
57 33 33 43 37 87 37 27 0 73 -7 101 -15 72 -22 71 -47 -2 -79 -29 -13 -56
-28 -60 -34 -7 -12 50 -22 125 -22 50 0 62 4 105 39 65 51 100 68 180 87 65
15 245 30 394 33 l75 1 65 -75z m1167 -286 c45 -28 169 -170 234 -268 104
-157 199 -378 254 -588 31 -120 50 -359 42 -543 -6 -150 -11 -170 -38 -170
-21 0 -54 42 -113 142 -45 77 -122 168 -142 168 -35 0 0 -93 84 -219 58 -86
146 -185 172 -193 10 -3 14 -16 12 -39 -5 -70 -33 -126 -103 -210 -39 -46 -77
-99 -86 -118 -8 -19 -17 -81 -20 -142 l-6 -108 -81 -113 c-135 -189 -200 -270
-274 -340 -38 -38 -73 -68 -77 -68 -41 0 -75 64 -125 235 -43 150 -48 211 -21
306 27 97 26 115 -5 183 -14 32 -33 99 -42 151 -10 51 -20 96 -24 100 -3 3
-82 7 -175 8 -163 2 -170 3 -227 31 -32 16 -76 46 -97 67 -45 45 -52 80 -53
244 -1 128 6 146 92 240 30 33 70 83 88 112 19 28 44 59 56 68 49 34 257 81
313 71 21 -4 60 -32 109 -76 42 -39 82 -70 89 -70 7 0 95 -1 196 -3 l183 -3
-6 39 c-10 58 -23 76 -69 96 -46 20 -71 44 -82 79 -12 40 9 52 96 52 141 0
169 28 96 96 -38 37 -52 44 -85 44 -48 0 -77 -26 -126 -115 -62 -110 -91 -113
-147 -17 -66 114 -95 128 -78 38 19 -103 -9 -111 -97 -26 -47 45 -69 60 -91
60 -34 -1 -45 -9 -102 -78 -51 -61 -103 -98 -153 -107 -30 -6 -41 -2 -72 25
-34 31 -36 35 -36 95 0 82 12 95 90 95 81 0 94 14 87 97 -6 61 -5 63 21 77 35
18 85 68 124 123 17 24 36 44 42 45 6 1 51 2 100 3 85 0 90 1 105 26 9 14 31
45 49 69 29 39 31 45 18 64 -7 12 -26 25 -41 31 -30 11 -28 12 -98 -85 -62
-85 -142 -77 -191 21 -14 29 -26 60 -26 69 0 24 167 183 220 210 62 32 87 38
149 39 38 1 63 -5 88 -20z m-6080 -225 c57 -36 58 -42 63 -394 3 -179 4 -907
3 -1619 l-3 -1295 -23 -24 c-52 -56 -141 -70 -203 -31 -76 46 -222 234 -312
399 -118 218 -223 537 -271 825 -40 243 -36 657 9 921 64 374 212 767 377
1004 58 82 179 208 218 226 35 16 108 10 142 -12z m5557 -181 c64 -57 66 -68
19 -130 -37 -50 -97 -42 -128 17 -11 21 -12 36 -5 54 7 19 5 38 -7 70 -14 37
-15 47 -4 60 13 15 16 15 41 -1 15 -10 53 -41 84 -70z m-2944 32 c49 -25 119
-94 142 -139 18 -35 20 -53 16 -149 l-5 -110 61 -66 c105 -116 216 -227 419
-423 l198 -191 92 12 c107 14 154 4 231 -47 l45 -31 133 88 c174 114 173 112
213 281 27 110 76 142 231 148 87 4 107 1 153 -18 61 -27 122 -92 139 -148 7
-22 12 -75 12 -118 0 -95 -22 -146 -86 -203 -85 -74 -192 -90 -299 -45 -100
43 -92 44 -232 -46 -71 -46 -137 -89 -149 -96 -38 -23 -51 -42 -58 -84 -9 -55
-36 -107 -81 -153 -50 -51 -108 -79 -181 -85 -51 -4 -71 0 -116 20 -135 62
-209 193 -179 318 l11 45 -89 85 c-49 47 -208 201 -353 342 l-264 256 -104 7
-105 6 -65 -57 c-36 -31 -168 -155 -295 -274 -300 -284 -359 -336 -422 -377
-38 -24 -60 -47 -78 -82 -63 -126 -218 -184 -353 -132 -60 22 -41 31 -303
-145 -260 -175 -316 -202 -355 -176 -21 14 -34 51 -34 95 0 37 5 50 32 76 27
27 228 164 422 288 l59 38 -2 81 c-3 129 42 209 151 263 51 26 73 31 132 31
88 0 132 -19 209 -90 l57 -52 53 48 c160 146 637 608 637 616 0 5 -7 23 -16
40 -39 76 -10 214 59 286 80 84 225 114 317 67z m2766 -113 c22 -45 -7 -83
-47 -62 -19 11 -25 43 -13 75 9 23 46 15 60 -13z m-6429 -589 c30 -37 29 -75
-6 -258 -42 -212 -53 -331 -53 -565 1 -223 16 -391 57 -596 31 -158 32 -203 5
-237 -25 -32 -81 -51 -123 -43 -130 26 -316 308 -388 590 -46 178 -45 403 2
584 55 210 241 491 364 548 48 23 115 12 142 -23z m4812 -179 c18 -4 30 -12
28 -18 -6 -20 -71 -46 -114 -46 -36 0 -43 3 -43 19 0 41 55 59 129 45z m-982
-287 c17 -17 18 -73 18 -1062 0 -843 -2 -1047 -13 -1057 -19 -19 -585 -19
-604 0 -10 10 -13 212 -13 1045 0 1181 -8 1083 87 1090 29 2 155 4 280 3 204
-1 229 -3 245 -19z m1596 -222 c132 -51 148 -63 161 -114 15 -62 58 -92 205
-146 124 -45 165 -69 174 -105 3 -10 -11 -48 -29 -84 -19 -36 -45 -108 -58
-158 -30 -124 -47 -152 -111 -193 -54 -35 -87 -72 -99 -112 -11 -36 -103 -171
-177 -261 -42 -51 -69 -92 -69 -107 0 -13 7 -56 15 -96 19 -90 14 -109 -29
-109 -54 0 -95 37 -140 123 l-41 79 -7 278 c-5 216 -10 284 -21 306 -8 16 -57
70 -109 119 -97 92 -142 150 -153 196 -5 21 2 34 39 73 48 49 82 107 116 200
23 61 78 117 142 146 46 20 52 19 191 -35z m-2511 -453 c19 -19 19 -1425 0
-1444 -19 -19 -579 -19 -591 1 -24 37 -24 1366 0 1428 11 29 23 30 321 29 196
-1 260 -4 270 -14z m1808 -172 c13 -8 15 -90 15 -639 0 -346 -4 -633 -8 -638
-5 -4 -134 -8 -287 -8 -216 0 -282 3 -292 13 -10 10 -14 122 -16 525 -4 585 1
710 29 738 18 18 37 19 282 19 147 0 269 -4 277 -10z m-2716 -349 c14 -12 16
-64 16 -472 l0 -459 -23 -5 c-13 -4 -141 -5 -286 -3 -205 2 -264 6 -270 16
-10 17 -19 579 -11 764 3 92 9 141 18 150 20 20 109 26 334 24 154 -1 210 -5
222 -15z m2216 -2496 l0 -715 -125 0 -125 0 0 61 0 61 -54 -49 c-29 -27 -71
-54 -93 -61 -22 -7 -94 -12 -159 -12 -106 0 -125 3 -174 26 -116 54 -201 155
-242 289 -28 89 -30 261 -5 345 24 78 71 156 132 216 92 92 199 130 339 122
87 -6 152 -31 214 -82 16 -15 33 -26 36 -26 3 0 6 122 6 270 l0 270 125 0 125
0 0 -715z m1750 440 l0 -276 63 54 c55 47 73 56 131 67 127 24 226 0 333 -80
112 -85 121 -129 124 -601 l2 -314 -127 -3 -126 -3 0 279 c0 154 -5 303 -10
332 -19 98 -80 150 -177 150 -70 0 -115 -16 -150 -52 -55 -57 -56 -68 -61
-402 l-4 -309 -91 7 c-49 3 -107 6 -129 6 l-38 0 0 710 0 710 130 0 130 0 0
-275z m-6435 200 c156 -41 292 -186 298 -317 l2 -43 -122 -3 -122 -3 -17 33
c-24 47 -43 67 -89 91 -57 29 -184 30 -240 2 -53 -27 -85 -76 -85 -132 0 -98
38 -124 271 -187 297 -82 415 -183 434 -375 25 -250 -185 -441 -485 -441 -104
0 -206 21 -280 57 -103 50 -215 185 -235 283 -3 19 -9 43 -11 53 -5 15 5 17
106 17 111 0 150 -9 150 -34 0 -26 106 -112 154 -126 61 -17 210 -9 253 13 74
39 103 142 57 204 -29 40 -128 85 -279 128 -159 45 -244 84 -306 142 -136 127
-136 368 0 516 44 47 155 109 226 126 66 15 254 13 320 -4z m5708 -24 c178
-62 309 -207 324 -357 l6 -54 -109 0 c-140 0 -152 4 -171 52 -36 91 -156 146
-297 135 -94 -7 -153 -33 -215 -95 -69 -69 -100 -136 -114 -243 -30 -236 49
-429 208 -511 58 -30 230 -30 297 0 52 22 144 103 153 133 6 17 17 19 131 19
l124 0 0 -38 c0 -52 -39 -127 -105 -199 -110 -122 -230 -172 -435 -180 -142
-6 -213 7 -315 57 -120 59 -243 184 -290 295 -49 119 -74 319 -56 449 42 298
223 495 512 556 75 16 285 5 352 -19z m3617 -200 l0 -139 109 -7 109 -7 6 -37
c3 -20 6 -71 6 -113 l0 -78 -116 0 -117 0 5 -212 c6 -224 15 -275 55 -296 10
-6 51 -14 90 -17 69 -7 71 -8 77 -37 3 -17 6 -61 6 -99 0 -99 -6 -103 -150
-96 -125 6 -169 19 -232 69 -45 35 -73 80 -83 133 -4 22 -10 151 -14 287 -4
136 -10 250 -14 254 -4 4 -32 9 -62 12 l-55 4 0 114 0 114 46 0 c83 0 84 2 84
155 l0 135 125 0 125 0 0 -139z m-8277 -146 c87 -18 178 -67 243 -131 145
-141 187 -403 95 -594 -39 -82 -151 -192 -237 -232 -69 -33 -70 -33 -224 -33
-155 0 -156 0 -221 32 -95 47 -190 138 -233 223 -19 39 -40 96 -47 127 -16 79
-6 212 21 295 26 77 102 177 178 233 113 83 271 113 425 80z m2216 5 c29 -5
69 -18 89 -27 58 -27 135 -111 172 -187 l34 -69 7 -346 c3 -190 4 -349 2 -353
-2 -5 -62 -8 -132 -8 l-128 0 -6 303 c-7 351 -11 375 -76 424 -37 29 -50 33
-102 33 -70 0 -113 -16 -151 -56 -59 -63 -62 -82 -66 -406 l-4 -298 -123 0
-123 0 -6 398 c-3 218 -9 441 -12 495 l-6 97 131 0 131 0 0 -52 0 -52 44 43
c25 24 61 48 87 56 53 16 166 19 238 5z m4581 -19 c82 -31 164 -101 196 -166
25 -53 27 -64 35 -292 4 -131 8 -300 8 -375 l1 -138 -125 0 -125 0 0 60 0 60
-62 -50 c-81 -66 -142 -84 -257 -78 -67 3 -97 10 -136 30 -234 122 -215 422
34 520 48 19 80 22 235 26 l179 4 -7 56 c-13 114 -58 156 -167 154 -66 -1
-108 -19 -138 -59 -11 -16 -26 -34 -31 -40 -8 -9 -47 -13 -129 -13 l-119 0 18
60 c23 75 49 118 101 165 42 38 122 78 188 95 64 16 239 5 301 -19z m980 -96
l0 -125 -56 0 c-121 0 -198 -43 -240 -134 -23 -50 -24 -58 -24 -333 l0 -283
-135 0 -135 0 0 495 0 495 124 0 125 0 5 -42 c3 -24 7 -54 8 -68 3 -24 4 -24
26 12 41 66 132 106 245 107 l57 1 0 -125z m-7019 103 c0 -7 4 -147 8 -311 8
-286 9 -299 32 -345 59 -115 241 -124 313 -15 37 55 44 114 50 411 2 145 7
266 9 269 3 2 62 1 131 -3 l126 -7 0 -488 0 -489 -135 0 -135 0 6 48 c3 26 8
53 10 61 3 8 -21 -10 -53 -41 -70 -66 -122 -83 -258 -83 -78 0 -97 4 -146 28
-70 34 -142 110 -176 183 l-25 56 -6 369 -5 369 127 0 c94 0 126 -3 127 -12z"/>
<path d="M6416 8989 c-55 -43 -22 -159 45 -159 41 0 66 15 85 51 43 84 -56
167 -130 108z"/>
<path d="M8319 8341 c-32 -33 -36 -58 -14 -100 17 -33 33 -41 84 -41 51 0 81
32 81 87 0 33 -6 46 -26 62 -39 31 -89 28 -125 -8z"/>
<path d="M5217 8059 c-26 -15 -48 -65 -41 -93 15 -61 100 -91 144 -51 41 37
30 131 -15 149 -25 9 -68 7 -88 -5z"/>
<path d="M7529 7932 c-87 -27 -73 -172 17 -172 47 0 95 44 96 88 2 54 -60 100
-113 84z"/>
<path d="M6565 4358 c-87 -32 -145 -118 -153 -229 -14 -203 126 -330 311 -278
138 38 207 247 132 395 -44 85 -95 118 -188 121 -40 1 -85 -3 -102 -9z"/>
<path d="M3280 4354 c-89 -39 -140 -132 -140 -257 1 -124 45 -202 136 -244
127 -58 258 -15 318 103 37 75 36 216 -3 292 -22 43 -80 98 -118 113 -37 14
-154 10 -193 -7z"/>
<path d="M9959 3971 c-45 -45 -50 -78 -19 -128 23 -38 51 -47 124 -41 107 9
202 83 213 167 l6 41 -143 0 -142 0 -39 -39z"/>
</g>
</svg>
